#!OML:ASF F:\VICON\USERDATA\INSTALL\rory7\rory7.ASF
:FULLY-SPECIFIED
:DEGREES
2322
root -9.2114 20.1561 -4.06726 -9.76013 -48.1388 6.40528
lowerback 13.3339 1.03338 -3.82501
upperback -3.10168 0.527323 -1.67461
thorax -10.9201 0.429902 0.224668
lowerneck -12.2585 -0.679313 -6.57819
upperneck -7.24066 -0.217112 2.29658
head -0.21623 -0.00587568 1.84063
rclavicle 1.04573e-013 3.57812e-015
rhumerus 94.6532 -30.1614 -39.7051
rradius 25.4091
rwrist 14.8694
rhand -34.9835 1.91604
rfingers 7.12502
rthumb -8.12888 -27.9076
lclavicle 1.04573e-013 3.57812e-015
lhumerus 89.0844 31.1261 30.5692
lradius 25.8867
lwrist -6.17683
lhand -21.2854 20.9318
lfingers 7.12502
lthumb 5.09881 50.8505
rfemur 4.05162 21.4904 19.1493
rtibia 25.3071
rfoot 14.4675 -15.5904
rtoes -8.1994
lfemur -5.78202 -12.1452 -22.3752
ltibia 27.3955
lfoot 16.2506 12.3807
ltoes -0.150257
2323
root -9.2065 20.1427 -4.0124 -9.46678 -48.6689 5.78178
lowerback 13.2856 1.01445 -3.3998
upperback -3.00837 0.601716 -1.5061
thorax -10.7837 0.44314 0.153828
lowerneck -12.5767 -0.665287 -6.22702
upperneck -7.16263 -0.235987 1.80751
head -0.142679 -0.0296528 1.61736
rclavicle -2.07481e-015 5.66536e-015
rhumerus 94.7421 -30.0637 -39.782
rradius 25.3344
rwrist 15.0098
rhand -34.9645 2.2275
rfingers 7.12502
rthumb -8.1105 -27.5969
lclavicle -2.07481e-015 5.66536e-015
lhumerus 88.8532 31.2112 30.373
lradius 26.0384
lwrist -5.90189
lhand -21.2601 21.5181
lfingers 7.12502
lthumb 5.1232 51.4362
rfemur 4.20016 21.5148 19.5471
rtibia 25.3929
rfoot 14.4981 -15.2927
rtoes -7.92616
lfemur -5.45258 -12.062 -22.0616
ltibia 27.4966
lfoot 15.6498 13.5331
ltoes 2.3043
2324
root -9.19689 20.1288 -3.96132 -8.52014 -49.3456 4.42173
lowerback 13.1444 0.956594 -2.50035
upperback -2.9156 0.719881 -1.23336
thorax -10.5872 0.452056 -0.0802034
lowerneck -12.5454 -0.650305 -6.23035
upperneck -7.42753 -0.226407 1.79914
head -0.233374 -0.0236773 1.61488
rclavicle -1.39522e-014 1.98785e-015
rhumerus 95.0606 -29.8955 -40.2464
rradius 25.1808
rwrist 15.5305
rhand -34.9424 1.80353
rfingers 7.12502
rthumb -8.08919 -28.0216
lclavicle -1.39522e-014 1.98785e-015
lhumerus 88.947 31.2635 30.5078
lradius 26.0604
lwrist -5.91311
lhand -21.1066 22.3853
lfingers 7.12502
lthumb 5.27141 52.2998
rfemur 4.15565 21.5534 20.4516
rtibia 25.5402
rfoot 14.6867 -15.0327
rtoes -8.06035
lfemur -5.15507 -12.0025 -21.203
ltibia 27.5848
lfoot 15.0212 14.2888
ltoes 2.28879
2325
root -9.17245 20.1156 -3.93314 -7.90591 -49.921 3.66586
lowerback 13.2499 0.972597 -2.06071
upperback -2.92155 0.824189 -1.13829
thorax -10.651 0.478285 -0.250616
lowerneck -12.5197 -0.677597 -6.04164
upperneck -7.62499 -0.296057 1.69608
head -0.299178 -0.0629112 1.54479
rclavicle 7.1637e-014 1.27222e-014
rhumerus 94.8232 -30.0818 -40.0229
rradius 25.2026
rwrist 15.4931
rhand -35.0245 0.897962
rfingers 7.12502
rthumb -8.16844 -28.9241
lclavicle 7.1637e-014 1.27222e-014
lhumerus 89.4081 31.1226 30.9438
lradius 25.9857
lwrist -6.33435
lhand -21.0054 23.019
lfingers 7.12502
lthumb 5.36912 52.931
rfemur 3.84121 21.6733 20.8814
rtibia 25.7481
rfoot 14.9737 -14.9155
rtoes -8.36405
lfemur -5.05282 -11.8769 -20.7232
ltibia 27.6147
lfoot 14.8216 14.3729
ltoes 0.790449
2326
root -9.16029 20.0987 -3.89541 -8.47113 -50.4763 4.07102
lowerback 13.4599 1.06196 -2.40662
upperback -2.85894 0.870897 -1.19731
thorax -10.7114 0.519612 -0.132577
lowerneck -12.2642 -0.671594 -6.01146
upperneck -7.93669 -0.315888 1.66444
head -0.439813 -0.0717593 1.52776
rclavicle 5.85918e-014 -2.18663e-015
rhumerus 94.6283 -30.1109 -39.8151
rradius 25.2178
rwrist 15.2399
rhand -34.8937 0.974153
rfingers 7.12502
rthumb -8.0422 -28.8528
lclavicle 5.85918e-014 -2.18663e-015
lhumerus 89.7351 30.9755 31.3197
lradius 25.8515
lwrist -6.77556
lhand -21.111 23.2668
lfingers 7.12502
lthumb 5.26719 53.1813
rfemur 3.92351 21.7564 20.5709
rtibia 26.0245
rfoot 15.0616 -14.5622
rtoes -8.38297
lfemur -4.50984 -11.6636 -21.1543
ltibia 27.5622
lfoot 14.474 14.439
ltoes 0.820604
